<svg fill="none" height="192" viewBox="0 0 192 192" width="192" xmlns="http://www.w3.org/2000/svg"><g stroke="#daa034" stroke-linecap="round" stroke-linejoin="round" stroke-width="8"><path d="m96 170c40.869 0 74-33.131 74-74 0-40.87-33.131-74-74-74s-74 33.13-74 74c0 40.869 33.131 74 74 74z"/><path d="m80 166-15.156-71.646c-3.526-16.668 9.189-32.354 26.226-32.354 12.301 0 23.023 8.372 26.006 20.305l.924 3.695c6 28-28 14-20 40s16 38 16 38m-24-102c-2-8-10-12-18-12"/><path d="m118 100c6 0 14-2 20-6m-34 18c6 4 16 6 27 4"/></g></svg>